<svg width="68" height="61" viewBox="0 0 68 61" fill="none" xmlns="http://www.w3.org/2000/svg">
<path d="M34.7002 60.7259C19.808 42.2966 -2.70814 0.0915627 38.0476 0.511782C74.6469 4.51443 44.12 52.4259 34.7002 60.7259Z" fill="#E0A359"/>
<path d="M19.8818 4.99169C10.7684 -10.3899 -10.2296 15.2153 5.93405 9.54566C5.93405 9.54566 11.7993 7.28362 16.5343 8.78668L19.8818 4.99169Z" fill="#E0A359"/>
<path d="M52.5109 6.93446C60.1241 -8.25893 75.7725 17.7558 63.2914 11.7654C63.2914 11.7654 58.7688 9.38698 55.0144 10.7949L52.5109 6.93446Z" fill="#E0A359"/>
<path opacity="0.81" d="M35.3136 23.1755C37.3983 23.1755 39.0882 21.9275 39.0882 20.388C39.0882 18.8486 37.3983 17.6006 35.3136 17.6006C33.2289 17.6006 31.5389 18.8486 31.5389 20.388C31.5389 21.9275 33.2289 23.1755 35.3136 23.1755Z" fill="black" fill-opacity="0.994975" stroke="black" stroke-opacity="0.996078" stroke-width="0.265"/>
<path d="M35.2168 23.0959L35.5071 30.4229C33.8375 35.5152 27.2766 33.0096 24.7639 30.7414" stroke="black"/>
<path d="M35.2168 23.0959L35.5072 30.4229C36.9457 35.5152 42.5989 33.0096 44.7639 30.7414" stroke="black"/>
<path d="M30.6678 33.5289C32.1776 48.0678 43.1931 44.8417 40.9271 33.2103" stroke="black"/>
</svg>
