<svg width="33" height="38" viewBox="0 0 33 38" fill="none" xmlns="http://www.w3.org/2000/svg">
<path d="M16.1054 38C-23.5259 -13.4458 58.7096 -9.22138 16.1054 38V38Z" fill="#01A58D"/>
<path d="M2.16406 14.9239L16.4784 17.6156L31.3771 14.7744" stroke="black" stroke-width="1.5"/>
<path d="M2.16406 20.581L16.3553 17.6156L30.8361 21.0251" stroke="black" stroke-width="1.5"/>
<path opacity="0.81" d="M16.5396 17.8873C16.7964 17.8873 17.0046 17.6981 17.0046 17.4648C17.0046 17.2314 16.7964 17.0423 16.5396 17.0423C16.2828 17.0423 16.0746 17.2314 16.0746 17.4648C16.0746 17.6981 16.2828 17.8873 16.5396 17.8873Z" fill="black" stroke="black" stroke-width="3.2"/>
<path d="M16.1054 38C-23.5259 -13.4458 58.7096 -9.22138 16.1054 38V38Z" fill="#01A58D"/>
<path d="M2.16406 14.9239L16.4784 17.6156L31.3771 14.7744" stroke="black" stroke-width="1.5"/>
<path d="M2.16406 20.581L16.3553 17.6156L30.8361 21.0251" stroke="black" stroke-width="1.5"/>
<path opacity="0.81" d="M16.5396 17.8873C16.7964 17.8873 17.0046 17.6981 17.0046 17.4648C17.0046 17.2314 16.7964 17.0423 16.5396 17.0423C16.2828 17.0423 16.0746 17.2314 16.0746 17.4648C16.0746 17.6981 16.2828 17.8873 16.5396 17.8873Z" fill="black" stroke="black" stroke-width="3.2"/>
<path d="M0.0900412 2.28089C0.935707 6.45248 5.61857 9.8761 5.69762 8.94781C5.84092 7.26494 8.03783 4.21917 8.67781 3.89517C9.67262 3.39153 5.65562 2.34162 0.0900412 2.28089Z" fill="#01A58D"/>
<path d="M32.9143 1.98318C32.2777 6.17961 28.0055 9.88074 27.896 8.96415C27.6974 7.30249 25.5167 4.42 24.9028 4.13956C23.9485 3.70364 27.6848 2.40225 32.9143 1.98318Z" fill="#01A58D"/>
</svg>
